<svg version="1.1" xmlns="http://www.w3.org/2000/svg" xmlns:xlink="http://www.w3.org/1999/xlink" width="500" height="500"><g data-paper-data="{&quot;description&quot;:&quot;Logo for EveryDoctor\n====================\n\nThis logo was generated by MarkMaker at http://emblemmatic.org/markmaker/ and may be composed of elements designed by others.\n\nThe font is Amaranth Italic designed by Gesine Todt and released under the OFL license via Google Fonts: https://www.google.com/fonts/specimen/Amaranth. The font includes this copyright statement: Copyright (c) 2011 by Gesine Todt (hallo@gesine-todt.de). All rights reserved.\n\nMarkMaker uses semantic data from the Princeton University WordNet database http://wordnet.princeton.edu and font descriptions from Google Fonts https://www.google.com/fonts.&quot;}" fill="#43c0c0" fill-rule="nonzero" stroke="none" stroke-width="1" stroke-linecap="butt" stroke-linejoin="miter" stroke-miterlimit="10" stroke-dasharray="" stroke-dashoffset="0" font-family="none" font-weight="none" font-size="none" text-anchor="none" style="mix-blend-mode: normal"><g data-paper-data="{&quot;elementType&quot;:&quot;logo&quot;}"><g data-paper-data="{&quot;elementType&quot;:&quot;text&quot;}"><g data-paper-data="{&quot;baseline&quot;:72.5,&quot;elementType&quot;:&quot;row&quot;}"><g data-paper-data="{&quot;baselineProportion&quot;:0.7655755015839493,&quot;fontSize&quot;:100,&quot;baseline&quot;:72.5,&quot;elementType&quot;:&quot;word&quot;}"><path d="M61.36364,226.90733h33.65385l-1.48601,4.64619h-23.51399l-3.23427,10.61986h18.96853l-1.57343,4.59088h-18.79371l-3.84615,12.50046h24.21329v4.64619h-35.75175z" data-paper-data="{&quot;elementType&quot;:&quot;letter&quot;,&quot;baseline&quot;:66.9,&quot;baselineProportion&quot;:1,&quot;fontSize&quot;:100}"></path><path d="M130.06993,236.42096c0.64103,0.81124 1.07809,1.72388 1.31119,2.73793c0.2331,1.01405 0.34965,1.96357 0.34965,2.84856c0,1.76998 -0.29138,3.55839 -0.87413,5.36524c-0.58275,1.80685 -1.41317,3.54917 -2.49126,5.22696c-1.07809,1.67779 -2.38928,3.23574 -3.93357,4.67385c-1.54429,1.43811 -3.27797,2.6734 -5.20105,3.70589c-2.21445,1.17998 -4.53089,2.03732 -6.9493,2.572c-2.41841,0.53468 -5.43415,0.80202 -9.0472,0.80202c-3.67133,0 -6.46853,-0.50702 -8.39161,-1.52107c-1.92308,-1.01405 -2.88462,-2.60887 -2.88462,-4.78447c0,-0.25812 0.02914,-0.59921 0.08741,-1.02327c0.05828,-0.42406 0.13112,-0.85733 0.21853,-1.29983c0.08741,-0.44249 0.17483,-0.86655 0.26224,-1.27217c0.08741,-0.40562 0.16026,-0.73749 0.21853,-0.99561l5.06993,-16.64885h9.52797l-4.98252,16.48291c-0.05828,0.18437 -0.11655,0.43328 -0.17483,0.74671c-0.05828,0.31343 -0.11655,0.63609 -0.17483,0.96796c-0.05828,0.33187 -0.11655,0.6453 -0.17483,0.9403c-0.05828,0.295 -0.08741,0.51624 -0.08741,0.66374c0,1.03249 0.40793,1.86216 1.22378,2.48903c0.81585,0.62687 2.01049,0.9403 3.58392,0.9403c1.98135,0 3.919,-0.60843 5.81294,-1.82529c1.89394,-1.21686 3.56935,-2.73793 5.02622,-4.56322c1.45688,-1.82529 2.62238,-3.81651 3.4965,-5.97367c0.87413,-2.15716 1.31119,-4.17604 1.31119,-6.05664c0,-0.47937 -0.04371,-1.14311 -0.13112,-1.99122c-0.08741,-0.84811 -0.21853,-1.47498 -0.39336,-1.8806z" data-paper-data="{&quot;elementType&quot;:&quot;letter&quot;,&quot;baseline&quot;:49.7,&quot;baselineProportion&quot;:0.9841584158415843,&quot;fontSize&quot;:100}"></path><path d="M132.34266,255.28228c0,-2.61809 0.53904,-5.08868 1.61713,-7.41178c1.07809,-2.3231 2.65152,-4.35119 4.72028,-6.0843c2.06876,-1.7331 4.6183,-3.10668 7.6486,-4.12073c3.0303,-1.01405 6.49767,-1.52107 10.4021,-1.52107c4.54545,0 7.77972,0.53468 9.7028,1.60404c1.92308,1.06936 2.88462,2.52591 2.88462,4.36963c0,1.62248 -0.65559,3.09746 -1.96678,4.42494c-1.31119,1.32748 -3.14685,2.48903 -5.50699,3.48464c-2.36014,0.99561 -5.17191,1.79763 -8.43531,2.40606c-3.2634,0.60843 -6.84732,0.96796 -10.75175,1.07858c-0.05828,0.33187 -0.08741,0.66374 -0.08741,0.99561c0,0.33187 0,0.6453 0,0.9403c0,1.7331 0.58275,2.93152 1.74825,3.59527c1.1655,0.66374 2.70979,0.99561 4.63287,0.99561c1.1655,0 2.49126,-0.11062 3.97727,-0.33187c1.48601,-0.22125 2.92832,-0.47937 4.32692,-0.77437c1.57343,-0.33187 3.23427,-0.71905 4.98252,-1.16155l2.01049,3.98245c-1.74825,0.51624 -3.58392,0.97717 -5.50699,1.38279c-1.6317,0.36875 -3.48193,0.6914 -5.5507,0.96796c-2.06876,0.27656 -4.1521,0.41484 -6.25,0.41484c-2.73893,0 -5.04079,-0.25812 -6.90559,-0.77437c-1.8648,-0.51624 -3.36538,-1.20764 -4.50175,-2.07419c-1.13636,-0.86655 -1.95221,-1.85295 -2.44755,-2.95918c-0.49534,-1.10624 -0.74301,-2.24935 -0.74301,-3.42933M154.72028,240.4034c-1.34033,0 -2.59324,0.2489 -3.75874,0.74671c-1.1655,0.49781 -2.19988,1.17077 -3.10315,2.01888c-0.90326,0.84811 -1.70455,1.82529 -2.40385,2.93152c-0.6993,1.10624 -1.28205,2.24935 -1.74825,3.42933c2.62238,-0.11062 4.90967,-0.37796 6.86189,-0.80202c1.95221,-0.42406 3.58392,-0.94952 4.8951,-1.57639c1.31119,-0.62687 2.30186,-1.29061 2.97203,-1.99122c0.67016,-0.70062 1.00524,-1.38279 1.00524,-2.04654c0,-0.84811 -0.36422,-1.51186 -1.09266,-1.99122c-0.72844,-0.47937 -1.93765,-0.71905 -3.62762,-0.71905z" data-paper-data="{&quot;elementType&quot;:&quot;letter&quot;,&quot;baseline&quot;:50.2,&quot;baselineProportion&quot;:0.9785575048732944,&quot;fontSize&quot;:100}"></path><path d="M196.59091,243.72211c-0.75758,-0.51624 -1.54429,-0.9403 -2.36014,-1.27217c-0.81585,-0.33187 -1.89394,-0.49781 -3.23427,-0.49781c-0.81585,0 -1.61713,0.23968 -2.40385,0.71905c-0.78671,0.47937 -1.54429,1.11545 -2.27273,1.90826c-0.72844,0.7928 -1.41317,1.69623 -2.0542,2.71028c-0.64103,1.01405 -1.19464,2.03732 -1.66084,3.0698l-4.1958,13.55139h-9.79021l4.45804,-13.93857c0.34965,-1.06936 0.59732,-2.06497 0.74301,-2.98684c0.14569,-0.92186 0.21853,-1.75154 0.21853,-2.48903c0,-2.0281 -0.29138,-3.50308 -0.87413,-4.42494c-0.58275,-0.92186 -1.01981,-1.53029 -1.31119,-1.82529l7.95455,-1.99122c0.64103,0.51624 1.18007,1.14311 1.61713,1.8806c0.43706,0.73749 0.65559,1.67779 0.65559,2.8209c0,0.77437 -0.10198,1.6317 -0.30594,2.572c-0.20396,0.9403 -0.36422,1.83451 -0.48077,2.68262c1.22378,-3.35558 2.82634,-5.84461 4.80769,-7.46709c1.98135,-1.62248 4.60373,-2.43372 7.86713,-2.43372c1.98135,0 3.58392,0.21203 4.80769,0.63609c1.22378,0.42406 2.18531,0.96796 2.88462,1.6317z" data-paper-data="{&quot;elementType&quot;:&quot;letter&quot;,&quot;baseline&quot;:50,&quot;baselineProportion&quot;:1,&quot;fontSize&quot;:100}"></path><path d="M239.07343,236.80814c0,-0.07375 -0.13112,0.25812 -0.39336,0.99561c-0.26224,0.73749 -0.61189,1.71467 -1.04895,2.93152c-0.43706,1.21686 -0.90326,2.56278 -1.3986,4.03776c-0.49534,1.47498 -0.94697,2.93152 -1.3549,4.36963c-0.40793,1.43811 -0.75758,2.75637 -1.04895,3.95479c-0.29138,1.19842 -0.43706,2.11107 -0.43706,2.73793c0,0.92186 0.07284,1.7792 0.21853,2.572c0.14569,0.7928 0.30594,1.56717 0.48077,2.3231c0.17483,0.75593 0.33508,1.51186 0.48077,2.26778c0.14569,0.75593 0.21853,1.55795 0.21853,2.40606c0,2.0281 -0.43706,3.73355 -1.31119,5.11634c-0.87413,1.38279 -2.11247,2.48903 -3.71503,3.31871c-1.60256,0.82968 -3.55478,1.42889 -5.85664,1.79763c-2.30186,0.36875 -4.8514,0.55312 -7.6486,0.55312c-1.68998,0 -3.37995,-0.11984 -5.06993,-0.35953c-1.68998,-0.23968 -3.32168,-0.52546 -4.8951,-0.85733c-1.57343,-0.33187 -3.04487,-0.6914 -4.41434,-1.07858c-1.36946,-0.38718 -2.54953,-0.72827 -3.54021,-1.02327l3.40909,-4.64619c1.10723,0.295 2.30186,0.61765 3.58392,0.96796c1.28205,0.35031 2.59324,0.67296 3.93357,0.96796c1.34033,0.295 2.70979,0.5439 4.10839,0.74671c1.3986,0.20281 2.76807,0.30421 4.10839,0.30421c2.73893,0 4.86597,-0.55312 6.38112,-1.65935c1.51515,-1.10624 2.27273,-2.45216 2.27273,-4.03776c0,-0.33187 -0.01457,-0.6914 -0.04371,-1.07858c-0.02914,-0.38718 -0.07284,-0.82968 -0.13112,-1.32748c-0.05828,-0.49781 -0.10198,-1.07858 -0.13112,-1.74232c-0.02914,-0.66374 -0.04371,-1.47498 -0.04371,-2.43372c0,-0.66374 0.08741,-1.41967 0.26224,-2.26778c0.17483,-0.84811 0.32051,-1.5856 0.43706,-2.21247l-1.66084,2.3231c-1.68998,2.54434 -3.94814,4.44338 -6.77448,5.69711c-2.82634,1.25373 -5.98776,1.8806 -9.48427,1.8806c-3.84615,0 -6.65793,-0.60843 -8.43531,-1.82529c-1.77739,-1.21686 -2.66608,-2.85778 -2.66608,-4.92275c0,-1.43811 0.29138,-2.83934 0.87413,-4.2037c0.58275,-1.36436 1.23834,-2.70106 1.96678,-4.0101c0.72844,-1.30905 1.38403,-2.60887 1.96678,-3.89948c0.58275,-1.29061 0.87413,-2.58122 0.87413,-3.87183c0,-0.73749 -0.04371,-1.46576 -0.13112,-2.18482c-0.08741,-0.71905 -0.18939,-1.28139 -0.30594,-1.68701l8.3042,-1.32748c0.64103,0.81124 1.07809,1.72388 1.31119,2.73793c0.2331,1.01405 0.34965,1.96357 0.34965,2.84856c0,1.29061 -0.27681,2.52591 -0.83042,3.70589c-0.55361,1.17998 -1.15093,2.35075 -1.79196,3.5123c-0.64103,1.16155 -1.23834,2.31388 -1.79196,3.45699c-0.55361,1.14311 -0.83042,2.3231 -0.83042,3.53995c0,0.88499 0.33508,1.6317 1.00524,2.24013c0.67016,0.60843 1.90851,0.91264 3.71503,0.91264c1.57343,0 3.11772,-0.43328 4.63287,-1.29983c1.51515,-0.86655 2.92832,-1.97279 4.23951,-3.31871c1.31119,-1.34592 2.44755,-2.83012 3.40909,-4.4526c0.96154,-1.62248 1.67541,-3.18965 2.14161,-4.7015l2.70979,-8.79457z" data-paper-data="{&quot;elementType&quot;:&quot;letter&quot;,&quot;baseline&quot;:49.7,&quot;baselineProportion&quot;:0.6912378303198887,&quot;fontSize&quot;:100}"></path><path d="M275.78671,250.74671c-0.29138,1.03249 -0.50991,1.98201 -0.65559,2.84856c-0.14569,0.86655 -0.21853,1.65014 -0.21853,2.35075c0,1.80685 0.36422,3.19887 1.09266,4.17604c0.72844,0.97717 1.41317,1.76076 2.0542,2.35075l-7.86713,1.99122c-0.87413,-0.62687 -1.588,-1.40123 -2.14161,-2.3231c-0.55361,-0.92186 -0.83042,-1.97279 -0.83042,-3.15277c0,-0.47937 0.05828,-1.09702 0.17483,-1.85295c0.11655,-0.75593 0.26224,-1.61326 0.43706,-2.572l-1.48601,2.21247c-0.99068,1.43811 -2.06876,2.64575 -3.23427,3.62292c-1.1655,0.97717 -2.40385,1.76076 -3.71503,2.35075c-1.31119,0.58999 -2.68065,1.00483 -4.10839,1.24452c-1.42774,0.23968 -2.89918,0.35953 -4.41434,0.35953c-2.0979,0 -3.87529,-0.25812 -5.33217,-0.77437c-1.45688,-0.51624 -2.65152,-1.20764 -3.58392,-2.07419c-0.9324,-0.86655 -1.61713,-1.84373 -2.0542,-2.93152c-0.43706,-1.0878 -0.65559,-2.20325 -0.65559,-3.34636c0,-2.61809 0.53904,-5.07025 1.61713,-7.35647c1.07809,-2.28622 2.66608,-4.28666 4.76399,-6.00133c2.0979,-1.71467 4.662,-3.06059 7.69231,-4.03776c3.0303,-0.97717 6.52681,-1.46576 10.48951,-1.46576c0.75758,0 1.67541,0.02766 2.7535,0.08297c1.07809,0.05531 2.37471,0.19359 3.88986,0.41484l3.67133,-11.94735l9.87762,-1.10624l-8.21678,26.93684M254.10839,259.81784c1.45688,0 2.91375,-0.51624 4.37063,-1.54873c1.45688,-1.03249 2.7972,-2.29544 4.02098,-3.78886c1.22378,-1.49342 2.2873,-3.09746 3.19056,-4.81213c0.90326,-1.71467 1.588,-3.27261 2.0542,-4.67385l1.22378,-3.81651c-0.6993,-0.22125 -1.50058,-0.36875 -2.40385,-0.44249c-0.90326,-0.07375 -1.76282,-0.11062 -2.57867,-0.11062c-2.62238,0 -4.8514,0.47015 -6.68706,1.41045c-1.83566,0.9403 -3.32168,2.13872 -4.45804,3.59527c-1.13636,1.45654 -1.95221,3.06059 -2.44755,4.81213c-0.49534,1.75154 -0.74301,3.42011 -0.74301,5.00572c0,1.62248 0.36422,2.75637 1.09266,3.40168c0.72844,0.6453 1.85023,0.96796 3.36538,0.96796z" data-paper-data="{&quot;elementType&quot;:&quot;letter&quot;,&quot;baseline&quot;:72.5,&quot;baselineProportion&quot;:0.9863945578231292,&quot;fontSize&quot;:100}"></path><path d="M304.54545,236.1444c2.7972,0 5.12821,0.25812 6.99301,0.77437c1.8648,0.51624 3.36538,1.20764 4.50175,2.07419c1.13636,0.86655 1.93765,1.85295 2.40385,2.95918c0.4662,1.10624 0.6993,2.24935 0.6993,3.42933c0,2.65497 -0.53904,5.144 -1.61713,7.46709c-1.07809,2.3231 -2.63695,4.35119 -4.67657,6.0843c-2.03963,1.7331 -4.58916,3.09746 -7.6486,4.09307c-3.05944,0.99561 -6.54138,1.49342 -10.4458,1.49342c-2.73893,0 -5.04079,-0.25812 -6.90559,-0.77437c-1.8648,-0.51624 -3.36538,-1.20764 -4.50175,-2.07419c-1.13636,-0.86655 -1.95221,-1.85295 -2.44755,-2.95918c-0.49534,-1.10624 -0.74301,-2.24935 -0.74301,-3.42933c0,-2.61809 0.53904,-5.08868 1.61713,-7.41178c1.07809,-2.3231 2.65152,-4.35119 4.72028,-6.0843c2.06876,-1.7331 4.6183,-3.10668 7.6486,-4.12073c3.0303,-1.01405 6.49767,-1.52107 10.4021,-1.52107M302.53497,240.4034c-1.92308,0 -3.62762,0.50702 -5.11364,1.52107c-1.48601,1.01405 -2.73893,2.28622 -3.75874,3.81651c-1.01981,1.53029 -1.79196,3.18043 -2.31643,4.95041c-0.52448,1.76998 -0.78671,3.42933 -0.78671,4.97806c0,1.7331 0.55361,2.93152 1.66084,3.59527c1.10723,0.66374 2.62238,0.99561 4.54545,0.99561c1.92308,0 3.62762,-0.50702 5.11364,-1.52107c1.48601,-1.01405 2.73893,-2.28622 3.75874,-3.81651c1.01981,-1.53029 1.79196,-3.18965 2.31643,-4.97806c0.52448,-1.78841 0.78671,-3.43855 0.78671,-4.95041c0,-1.7331 -0.55361,-2.93152 -1.66084,-3.59527c-1.10723,-0.66374 -2.62238,-0.99561 -4.54545,-0.99561z" data-paper-data="{&quot;elementType&quot;:&quot;letter&quot;,&quot;baseline&quot;:50.2,&quot;baselineProportion&quot;:0.9785575048732944,&quot;fontSize&quot;:100}"></path><path d="M348.86364,262.52812c-1.3986,0.36875 -2.85548,0.70062 -4.37063,0.99561c-1.34033,0.25812 -2.84091,0.48859 -4.50175,0.6914c-1.66084,0.20281 -3.39452,0.30421 -5.20105,0.30421c-2.73893,0 -5.04079,-0.25812 -6.90559,-0.77437c-1.8648,-0.51624 -3.36538,-1.20764 -4.50175,-2.07419c-1.13636,-0.86655 -1.95221,-1.85295 -2.44755,-2.95918c-0.49534,-1.10624 -0.74301,-2.24935 -0.74301,-3.42933c0,-2.58122 0.53904,-5.03337 1.61713,-7.35647c1.07809,-2.3231 2.65152,-4.36041 4.72028,-6.11195c2.06876,-1.75154 4.6183,-3.13433 7.6486,-4.14838c3.0303,-1.01405 6.49767,-1.52107 10.4021,-1.52107c1.6317,0 3.04487,0.15672 4.23951,0.47015c1.19464,0.31343 2.18531,0.71905 2.97203,1.21686c0.78671,0.49781 1.41317,1.06014 1.87937,1.68701c0.4662,0.62687 0.84499,1.27217 1.13636,1.93591l-7.25524,1.99122c-0.2331,-0.33187 -0.4662,-0.67296 -0.6993,-1.02327c-0.2331,-0.35031 -0.52448,-0.65452 -0.87413,-0.91264c-0.34965,-0.25812 -0.78671,-0.47015 -1.31119,-0.63609c-0.52448,-0.16594 -1.22378,-0.2489 -2.0979,-0.2489c-1.92308,0 -3.62762,0.48859 -5.11364,1.46576c-1.48601,0.97717 -2.73893,2.19403 -3.75874,3.65058c-1.01981,1.45654 -1.79196,3.05137 -2.31643,4.78447c-0.52448,1.7331 -0.78671,3.37402 -0.78671,4.92275c0,1.7331 0.55361,2.93152 1.66084,3.59527c1.10723,0.66374 2.62238,0.99561 4.54545,0.99561c0.75758,0 1.70455,-0.07375 2.84091,-0.22125c1.13636,-0.1475 2.24359,-0.32265 3.32168,-0.52546c1.07809,-0.20281 1.99592,-0.37796 2.7535,-0.52546l1.04895,-0.22125z" data-paper-data="{&quot;elementType&quot;:&quot;letter&quot;,&quot;baseline&quot;:50.2,&quot;baselineProportion&quot;:0.9785575048732944,&quot;fontSize&quot;:100}"></path><path d="M353.32168,236.80814h8.74126l3.84615,-6.91397l8.3042,-1.16155l-2.53497,8.07552h9.79021l-1.22378,4.48026h-9.96503l-4.8951,16.31698c-0.05828,0.18437 -0.10198,0.34109 -0.13112,0.47015c-0.02914,0.12906 -0.04371,0.2489 -0.04371,0.35953c0,0.51624 0.2331,0.87577 0.6993,1.07858c0.4662,0.20281 1.34033,0.30421 2.62238,0.30421c0.81585,0 1.64627,-0.04609 2.49126,-0.13828c0.84499,-0.09219 1.64627,-0.19359 2.40385,-0.30421c0.87413,-0.1475 1.71911,-0.31343 2.53497,-0.49781v4.14838c-0.99068,0.25812 -2.06876,0.47937 -3.23427,0.66374c-0.99068,0.18437 -2.17075,0.34109 -3.54021,0.47015c-1.36946,0.12906 -2.81177,0.19359 -4.32692,0.19359c-3.4965,0 -5.98776,-0.3964 -7.47378,-1.1892c-1.48601,-0.7928 -2.22902,-1.94513 -2.22902,-3.45699c0,-0.47937 0.08741,-0.99561 0.26224,-1.54873l5.33217,-16.8701h-7.43007z" data-paper-data="{&quot;elementType&quot;:&quot;letter&quot;,&quot;baseline&quot;:63.6,&quot;baselineProportion&quot;:0.9875776397515528,&quot;fontSize&quot;:100}"></path><path d="M400.87413,236.1444c2.7972,0 5.12821,0.25812 6.99301,0.77437c1.8648,0.51624 3.36538,1.20764 4.50175,2.07419c1.13636,0.86655 1.93765,1.85295 2.40385,2.95918c0.4662,1.10624 0.6993,2.24935 0.6993,3.42933c0,2.65497 -0.53904,5.144 -1.61713,7.46709c-1.07809,2.3231 -2.63695,4.35119 -4.67657,6.0843c-2.03963,1.7331 -4.58916,3.09746 -7.6486,4.09307c-3.05944,0.99561 -6.54138,1.49342 -10.4458,1.49342c-2.73893,0 -5.04079,-0.25812 -6.90559,-0.77437c-1.8648,-0.51624 -3.36538,-1.20764 -4.50175,-2.07419c-1.13636,-0.86655 -1.95221,-1.85295 -2.44755,-2.95918c-0.49534,-1.10624 -0.74301,-2.24935 -0.74301,-3.42933c0,-2.61809 0.53904,-5.08868 1.61713,-7.41178c1.07809,-2.3231 2.65152,-4.35119 4.72028,-6.0843c2.06876,-1.7331 4.6183,-3.10668 7.6486,-4.12073c3.0303,-1.01405 6.49767,-1.52107 10.4021,-1.52107M398.86364,240.4034c-1.92308,0 -3.62762,0.50702 -5.11364,1.52107c-1.48601,1.01405 -2.73893,2.28622 -3.75874,3.81651c-1.01981,1.53029 -1.79196,3.18043 -2.31643,4.95041c-0.52448,1.76998 -0.78671,3.42933 -0.78671,4.97806c0,1.7331 0.55361,2.93152 1.66084,3.59527c1.10723,0.66374 2.62238,0.99561 4.54545,0.99561c1.92308,0 3.62762,-0.50702 5.11364,-1.52107c1.48601,-1.01405 2.73893,-2.28622 3.75874,-3.81651c1.01981,-1.53029 1.79196,-3.18965 2.31643,-4.97806c0.52448,-1.78841 0.78671,-3.43855 0.78671,-4.95041c0,-1.7331 -0.55361,-2.93152 -1.66084,-3.59527c-1.10723,-0.66374 -2.62238,-0.99561 -4.54545,-0.99561z" data-paper-data="{&quot;elementType&quot;:&quot;letter&quot;,&quot;baseline&quot;:50.2,&quot;baselineProportion&quot;:0.9785575048732944,&quot;fontSize&quot;:100}"></path><path d="M444.93007,243.72211c-0.75758,-0.51624 -1.54429,-0.9403 -2.36014,-1.27217c-0.81585,-0.33187 -1.89394,-0.49781 -3.23427,-0.49781c-0.81585,0 -1.61713,0.23968 -2.40385,0.71905c-0.78671,0.47937 -1.54429,1.11545 -2.27273,1.90826c-0.72844,0.7928 -1.41317,1.69623 -2.0542,2.71028c-0.64103,1.01405 -1.19464,2.03732 -1.66084,3.0698l-4.1958,13.55139h-9.79021l4.45804,-13.93857c0.34965,-1.06936 0.59732,-2.06497 0.74301,-2.98684c0.14569,-0.92186 0.21853,-1.75154 0.21853,-2.48903c0,-2.0281 -0.29138,-3.50308 -0.87413,-4.42494c-0.58275,-0.92186 -1.01981,-1.53029 -1.31119,-1.82529l7.95455,-1.99122c0.64103,0.51624 1.18007,1.14311 1.61713,1.8806c0.43706,0.73749 0.65559,1.67779 0.65559,2.8209c0,0.77437 -0.10198,1.6317 -0.30594,2.572c-0.20396,0.9403 -0.36422,1.83451 -0.48077,2.68262c1.22378,-3.35558 2.82634,-5.84461 4.80769,-7.46709c1.98135,-1.62248 4.60373,-2.43372 7.86713,-2.43372c1.98135,0 3.58392,0.21203 4.80769,0.63609c1.22378,0.42406 2.18531,0.96796 2.88462,1.6317z" data-paper-data="{&quot;elementType&quot;:&quot;letter&quot;,&quot;baseline&quot;:50,&quot;baselineProportion&quot;:1,&quot;fontSize&quot;:100}"></path></g></g></g></g></g></svg>